<svg width="1200" height="360" viewBox="0 0 1200 360" fill="none" xmlns="http://www.w3.org/2000/svg" role="img" aria-labelledby="title desc">
  <title id="title">AI Dev Sidebar</title>
  <desc id="desc">Clean README banner for AI Dev Sidebar.</desc>
  <defs>
    <linearGradient id="background" x1="0" y1="0" x2="1200" y2="360" gradientUnits="userSpaceOnUse">
      <stop offset="0" stop-color="#17191f"/>
      <stop offset="0.62" stop-color="#20242d"/>
      <stop offset="1" stop-color="#2a1d18"/>
    </linearGradient>
    <linearGradient id="mark" x1="178" y1="91" x2="338" y2="266" gradientUnits="userSpaceOnUse">
      <stop offset="0" stop-color="#ff8a32"/>
      <stop offset="1" stop-color="#f04b23"/>
    </linearGradient>
    <linearGradient id="line" x1="154" y1="284" x2="1046" y2="284" gradientUnits="userSpaceOnUse">
      <stop offset="0" stop-color="#ff8a32"/>
      <stop offset="0.5" stop-color="#f6c45f"/>
      <stop offset="1" stop-color="#6aa8ff"/>
    </linearGradient>
  </defs>

  <rect width="1200" height="360" fill="url(#background)"/>
  <rect x="154" y="282" width="892" height="2" fill="url(#line)"/>

  <g transform="translate(172 92)">
    <path d="M82 0L164 30V105C164 152 131 185 82 200C33 185 0 152 0 105V30L82 0Z" fill="url(#mark)"/>
    <path d="M82 28L132 46V104C132 135 113 157 82 169C51 157 32 135 32 104V46L82 28Z" fill="#17191f" fill-opacity="0.88"/>
    <path d="M67 74L48 93L67 112" stroke="#ffb57c" stroke-width="10" stroke-linecap="round" stroke-linejoin="round"/>
    <path d="M97 74L116 93L97 112" stroke="#ffb57c" stroke-width="10" stroke-linecap="round" stroke-linejoin="round"/>
    <path d="M91 62L73 124" stroke="#f6c45f" stroke-width="10" stroke-linecap="round"/>
  </g>

  <text x="390" y="151" fill="#f8fafc" font-family="Inter, ui-sans-serif, system-ui, -apple-system, BlinkMacSystemFont, Segoe UI, sans-serif" font-size="58" font-weight="800" letter-spacing="0">AI Dev Sidebar</text>
  <text x="392" y="196" fill="#b7c0cf" font-family="Inter, ui-sans-serif, system-ui, -apple-system, BlinkMacSystemFont, Segoe UI, sans-serif" font-size="23" font-weight="500" letter-spacing="0">Chrome side panel tools for local AI, browser data, captures, and workflow launch</text>

  <g fill="#98a3b5" font-family="Inter, ui-sans-serif, system-ui, sans-serif" font-size="15" font-weight="700" letter-spacing="0">
    <text x="392" y="242">TERMINAL</text>
    <text x="510" y="242">INSPECT</text>
    <text x="612" y="242">DATA</text>
    <text x="686" y="242">RECORD</text>
    <text x="790" y="242">NEW TAB</text>
  </g>
</svg>
